<?xml version="1.0" standalone="no"?>
<!DOCTYPE svg PUBLIC "-//W3C//DTD SVG 20010904//EN"
 "http://www.w3.org/TR/2001/REC-SVG-20010904/DTD/svg10.dtd">
<svg version="1.0" xmlns="http://www.w3.org/2000/svg"
 width="32.000000pt" height="32.000000pt" viewBox="0 0 32.000000 32.000000"
 preserveAspectRatio="xMidYMid meet">

<g transform="translate(0.000000,32.000000) scale(0.100000,-0.100000)" stroke="none">
<path d="M63 253 c-3 -9 0 -28 8 -42 19 -34 63 -39 100 -12 16 12 29 17 29 12
0 -16 -30 -41 -48 -41 -29 0 -62 -30 -62 -55 0 -47 64 -69 119 -41 42 22 56
43 41 61 -11 13 -17 11 -47 -16 -37 -32 -66 -35 -71 -7 -2 11 9 20 39 29 56
19 87 59 71 94 -16 35 -45 32 -91 -10 -44 -40 -56 -43 -71 -16 -13 25 -13 51
0 51 6 0 10 -6 10 -13 0 -7 6 -22 14 -33 13 -17 13 -15 3 19 -12 39 -33 49
-44 20z m167 -13 c0 -5 -6 -10 -14 -10 -8 0 -18 5 -21 10 -3 6 3 10 14 10 12
0 21 -4 21 -10z m-80 -89 c0 -13 -28 -22 -35 -11 -3 4 1 11 7 13 20 8 28 8 28
-2z m100 -32 c0 -12 -60 -49 -79 -49 -8 0 3 15 25 34 37 32 54 37 54 15z"/>
</g>
</svg>
